<?xml version="1.0" encoding="utf-8"?>
<!-- Generator: Adobe Illustrator 25.2.3, SVG Export Plug-In . SVG Version: 6.00 Build 0)  -->
<svg version="1.1" id="圖層_1" focusable="false" xmlns="http://www.w3.org/2000/svg" xmlns:xlink="http://www.w3.org/1999/xlink"
	 x="0px" y="0px" viewBox="0 0 512 512" style="enable-background:new 0 0 512 512;" xml:space="preserve">
<path d="M256,215c-77.2,0-186.6,86.3-186.6,140.8c0,24.5,26.1,39.2,69.7,39.2c47.5,0,78.8-17.6,116.9-17.6
	c38.4,0,69.8,17.6,116.9,17.6c43.7,0,69.7-14.7,69.7-39.2C442.6,301.3,333.2,215,256,215z M110.7,185.4
	c-10.1-32.7-41.2-53.9-69.5-47.3c-28.3,6.6-43,38.4-32.9,71.1s41.2,53.9,69.5,47.3C106,250,120.8,218.1,110.7,185.4L110.7,185.4z
	 M193,178.4c30.1-7.7,45.1-47.1,33.6-88.1s-45.2-68-75.3-60.3s-45.1,47.1-33.6,88.1S162.9,186.1,193,178.4z M466.4,138.1
	c-28.3-6.6-59.4,14.6-69.5,47.3c-10.1,32.7,4.6,64.6,32.9,71.1c28.3,6.6,59.4-14.6,69.5-47.3C509.5,176.5,494.7,144.7,466.4,138.1
	L466.4,138.1z M314.6,165.8c30.1,7.7,63.8-19.3,75.3-60.3s-3.5-80.4-33.6-88.1S292.5,36.7,281,77.7S284.5,158.1,314.6,165.8z"/>
</svg>
